<svg xmlns="http://www.w3.org/2000/svg" xmlns:xlink="http://www.w3.org/1999/xlink" width="500" zoomAndPan="magnify" viewBox="0 0 375 374.999991" height="500" preserveAspectRatio="xMidYMid meet" version="1.0"><defs><g/></defs><path fill="#0071bc" d="M 213.8125 179.179688 L 190.820312 210.085938 C 177.863281 227.527344 155.875 230.773438 140.320312 219.234375 C 124.765625 207.695312 121.546875 185.703125 134.535156 168.261719 L 157.527344 137.355469 Z M 213.8125 179.179688 " fill-opacity="1" fill-rule="nonzero"/><path fill="#f7931e" d="M 240.496094 143.320312 L 217.503906 174.222656 L 161.214844 132.367188 L 184.207031 101.464844 C 197.167969 84.023438 219.15625 80.773438 234.679688 92.34375 C 250.234375 103.886719 253.453125 125.875 240.496094 143.320312 Z M 240.496094 143.320312 " fill-opacity="1" fill-rule="nonzero"/><g fill="#0071bc" fill-opacity="1"><g transform="translate(66.137182, 268.224988)"><g><path d="M 12.648438 -27.140625 L 1.792969 -27.140625 L 1.792969 0 L 12.648438 0 C 20.789062 0 25.402344 -4.886719 25.402344 -13.570312 C 25.402344 -22.253906 20.789062 -27.140625 12.648438 -27.140625 Z M 13.191406 -7.597656 L 10.585938 -7.597656 L 10.585938 -19.539062 L 13.191406 -19.539062 C 15.414062 -19.539062 16.71875 -17.421875 16.71875 -13.570312 C 16.71875 -9.769531 15.414062 -7.597656 13.191406 -7.597656 Z M 13.191406 -7.597656 "/></g></g></g><g fill="#0071bc" fill-opacity="1"><g transform="translate(92.894508, 268.224988)"><g><path d="M 22.308594 -11.722656 C 24.316406 -13.136719 25.402344 -15.414062 25.402344 -18.453125 C 25.402344 -23.992188 22.035156 -27.140625 16.121094 -27.140625 L 1.792969 -27.140625 L 1.792969 0 L 10.585938 0 L 10.585938 -9.769531 L 13.839844 -9.769531 C 16.011719 -9.390625 17.207031 -7.925781 17.207031 -5.589844 L 17.207031 0 L 25.238281 0 L 25.238281 -4.449219 C 25.238281 -7.707031 24.207031 -10.203125 22.308594 -11.722656 Z M 14.925781 -16.285156 L 10.585938 -16.285156 L 10.585938 -20.355469 L 14.925781 -20.355469 C 16.554688 -20.355469 17.53125 -19.648438 17.53125 -18.292969 C 17.53125 -17.042969 16.554688 -16.285156 14.925781 -16.285156 Z M 14.925781 -16.285156 "/></g></g></g><g fill="#0071bc" fill-opacity="1"><g transform="translate(119.760381, 268.224988)"><g><path d="M 1.792969 -27.140625 L 1.792969 -12.210938 C 1.792969 -4.179688 6.023438 0.433594 13.570312 0.433594 C 21.113281 0.433594 25.402344 -4.179688 25.402344 -12.210938 L 25.402344 -27.140625 L 16.554688 -27.140625 L 16.554688 -12.210938 C 16.554688 -9.011719 15.523438 -7.21875 13.625 -7.21875 C 11.667969 -7.21875 10.585938 -9.011719 10.585938 -12.210938 L 10.585938 -27.140625 Z M 1.792969 -27.140625 "/></g></g></g><g fill="#0071bc" fill-opacity="1"><g transform="translate(146.897629, 268.224988)"><g><path d="M 26 0 L 26.164062 -14.382812 L 13.679688 -14.382812 L 13.679688 -9.554688 L 16.175781 -9.554688 C 15.632812 -8.035156 14.816406 -7.21875 13.839844 -7.21875 C 11.453125 -7.21875 10.148438 -9.5 10.148438 -13.570312 C 10.148438 -17.695312 11.453125 -19.972656 13.839844 -19.972656 C 15.6875 -19.972656 16.878906 -18.507812 17.316406 -15.847656 L 25.890625 -17.371094 C 24.804688 -23.882812 20.570312 -27.574219 13.785156 -27.574219 C 5.863281 -27.574219 1.464844 -22.527344 1.464844 -13.570312 C 1.464844 -4.667969 5.863281 0.433594 13.785156 0.433594 C 16.609375 0.433594 19.050781 -0.761719 21.113281 -2.984375 L 22.089844 0 Z M 26 0 "/></g></g></g><g fill="#0071bc" fill-opacity="1"><g transform="translate(174.794718, 268.224988)"><g><path d="M 13.785156 0.378906 C 7.652344 0.433594 3.3125 -2.496094 1.792969 -7.707031 L 9.011719 -9.660156 C 9.660156 -7.652344 11.398438 -6.511719 13.785156 -6.511719 C 16.445312 -6.511719 17.964844 -7.109375 17.964844 -8.195312 C 17.964844 -11.34375 1.085938 -10.097656 1.085938 -19.214844 C 1.085938 -24.535156 5.589844 -27.574219 13.625 -27.574219 C 19.8125 -27.574219 24.152344 -24.640625 25.621094 -19.433594 L 18.453125 -17.476562 C 17.804688 -19.59375 16.066406 -20.789062 13.625 -20.789062 C 10.964844 -20.789062 9.5 -20.136719 9.5 -18.996094 C 9.5 -16.230469 26.324219 -17.097656 26.324219 -7.980469 C 26.324219 -2.550781 21.820312 0.488281 13.785156 0.378906 Z M 13.785156 0.378906 "/></g></g></g><g fill="#0071bc" fill-opacity="1"><g transform="translate(202.474712, 268.224988)"><g><path d="M 25.183594 -19.539062 L 25.183594 -27.140625 L 1.574219 -27.140625 L 1.574219 -19.539062 L 9.011719 -19.539062 L 9.011719 0 L 17.804688 0 L 17.804688 -19.539062 Z M 25.183594 -19.539062 "/></g></g></g><g fill="#0071bc" fill-opacity="1"><g transform="translate(229.232038, 268.224988)"><g><path d="M 14.222656 0.433594 C 22.363281 0.433594 26.976562 -4.667969 26.976562 -13.570312 C 26.976562 -22.527344 22.363281 -27.574219 14.222656 -27.574219 C 6.078125 -27.574219 1.464844 -22.527344 1.464844 -13.570312 C 1.464844 -4.667969 6.078125 0.433594 14.222656 0.433594 Z M 14.222656 -7.21875 C 11.617188 -7.21875 10.148438 -9.5 10.148438 -13.570312 C 10.148438 -17.695312 11.617188 -19.972656 14.222656 -19.972656 C 16.773438 -19.972656 18.238281 -17.695312 18.292969 -13.570312 C 18.238281 -9.5 16.773438 -7.21875 14.222656 -7.21875 Z M 14.222656 -7.21875 "/></g></g></g><g fill="#0071bc" fill-opacity="1"><g transform="translate(257.617595, 268.224988)"><g><path d="M 22.308594 -11.722656 C 24.316406 -13.136719 25.402344 -15.414062 25.402344 -18.453125 C 25.402344 -23.992188 22.035156 -27.140625 16.121094 -27.140625 L 1.792969 -27.140625 L 1.792969 0 L 10.585938 0 L 10.585938 -9.769531 L 13.839844 -9.769531 C 16.011719 -9.390625 17.207031 -7.925781 17.207031 -5.589844 L 17.207031 0 L 25.238281 0 L 25.238281 -4.449219 C 25.238281 -7.707031 24.207031 -10.203125 22.308594 -11.722656 Z M 14.925781 -16.285156 L 10.585938 -16.285156 L 10.585938 -20.355469 L 14.925781 -20.355469 C 16.554688 -20.355469 17.53125 -19.648438 17.53125 -18.292969 C 17.53125 -17.042969 16.554688 -16.285156 14.925781 -16.285156 Z M 14.925781 -16.285156 "/></g></g></g><g fill="#0071bc" fill-opacity="1"><g transform="translate(284.48348, 268.224988)"><g><path d="M 10.585938 -20.355469 L 22.578125 -20.355469 L 22.578125 -27.140625 L 1.792969 -27.140625 L 1.792969 0 L 22.578125 0 L 22.578125 -6.785156 L 10.585938 -6.785156 L 10.585938 -10.3125 L 22.578125 -10.3125 L 22.578125 -16.828125 L 10.585938 -16.828125 Z M 10.585938 -20.355469 "/></g></g></g><g fill="#0071bc" fill-opacity="1"><g transform="translate(165.37506, 291.324972)"><g><path d="M 5 -6.71875 L 7.375 -11.421875 L 9.984375 -11.421875 L 6.203125 -4.453125 L 6.203125 0 L 3.796875 0 L 3.796875 -4.375 L 0 -11.421875 L 2.625 -11.421875 Z M 5 -6.71875 "/></g></g></g><g fill="#0071bc" fill-opacity="1"><g transform="translate(175.356997, 291.324972)"><g><path d="M 10.734375 -11.421875 L 10.734375 -4.03125 C 10.734375 -3.1875 10.546875 -2.445312 10.171875 -1.8125 C 9.796875 -1.175781 9.25 -0.6875 8.53125 -0.34375 C 7.820312 -0.0078125 6.976562 0.15625 6 0.15625 C 4.53125 0.15625 3.390625 -0.21875 2.578125 -0.96875 C 1.765625 -1.726562 1.359375 -2.757812 1.359375 -4.0625 L 1.359375 -11.421875 L 3.78125 -11.421875 L 3.78125 -4.4375 C 3.78125 -3.550781 3.957031 -2.898438 4.3125 -2.484375 C 4.664062 -2.078125 5.25 -1.875 6.0625 -1.875 C 6.851562 -1.875 7.425781 -2.082031 7.78125 -2.5 C 8.144531 -2.914062 8.328125 -3.566406 8.328125 -4.453125 L 8.328125 -11.421875 Z M 10.734375 -11.421875 "/></g></g></g><g fill="#0071bc" fill-opacity="1"><g transform="translate(187.447793, 291.324972)"><g><path d="M 3.859375 -6.359375 L 4.640625 -6.359375 C 5.410156 -6.359375 5.976562 -6.484375 6.34375 -6.734375 C 6.707031 -6.992188 6.890625 -7.394531 6.890625 -7.9375 C 6.890625 -8.476562 6.703125 -8.863281 6.328125 -9.09375 C 5.953125 -9.320312 5.375 -9.4375 4.59375 -9.4375 L 3.859375 -9.4375 Z M 3.859375 -4.390625 L 3.859375 0 L 1.4375 0 L 1.4375 -11.421875 L 4.765625 -11.421875 C 6.316406 -11.421875 7.460938 -11.140625 8.203125 -10.578125 C 8.953125 -10.015625 9.328125 -9.15625 9.328125 -8 C 9.328125 -7.332031 9.140625 -6.734375 8.765625 -6.203125 C 8.398438 -5.679688 7.878906 -5.273438 7.203125 -4.984375 C 8.921875 -2.410156 10.039062 -0.75 10.5625 0 L 7.875 0 L 5.15625 -4.390625 Z M 3.859375 -4.390625 "/></g></g></g><g fill="#0071bc" fill-opacity="1"><g transform="translate(198.007714, 291.324972)"><g><path d="M 1.4375 0 L 1.4375 -11.421875 L 3.859375 -11.421875 L 3.859375 0 Z M 1.4375 0 "/></g></g></g></svg>